PathFileType	4	(X/Y/Z)	6_coords_data.trc
DataRate	CameraRate	NumFrames	NumMarkers	Units	OrigDataRate	OrigDataStartFrame	OrigNumFrames
30.0	30.0	9	21	m	30.0	66	75
Frame#	Time	THUMB_TIP	THUMB_IP	THUMB_MCP	THUMB_CMC	INDEX_TIP	INDEX_DIP	INDEX_PIP	INDEX_MCP	MIDDLE_TIP	MIDDLE_DIP	MIDDLE_PIP	MIDDLE_MCP	RING_TIP	RING_DIP	RING_PIP	RING_MCP	PINKY_TIP	PINKY_DIP	PINKY_PIP	PINKY_MCP	WRIST
X1	Y1	Z1	X2	Y2	Z2	X3	Y3	Z3	X4	Y4	Z4	X5	Y5	Z5	X6	Y6	Z6	X7	Y7	Z7	X8	Y8	Z8	X9	Y9	Z9	X10	Y10	Z10	X11	Y11	Z11	X12	Y12	Z12	X13	Y13	Z13	X14	Y14	Z14	X15	Y15	Z15	X16	Y16	Z16	X17	Y17	Z17	X18	Y18	Z18	X19	Y19	Z19	X20	Y20	Z20	X21	Y21	Z21
65	2.1666666666666665	0.055458999633789065	-0.08805609893798828	0.9917369995117188	0.04413290023803711	-0.06747129821777344	1.0073200073242188	0.022538499832153322	-0.057572601318359375	1.030300048828125	0.006637869834899902	-0.027757999420166015	1.0445799560546876	0.038960098266601566	-0.055806800842285155	0.9128939819335937	0.025237600326538087	-0.055020000457763674	0.9314459838867187	0.01240410041809082	-0.05318920135498047	0.952676025390625	-0.000863884985446929	-0.04574319839477539	0.990010009765625	0.03656729888916015	-0.02076810073852539	0.8968359985351563	0.02215629959106445	-0.022629899978637694	0.91714501953125	0.005692090034484863	-0.023972000122070312	0.9435289916992188	-0.00831424045562744	-0.022537099838256837	0.9838209838867188	0.0340452995300293	0.014883700370788575	0.9043460083007813	0.021775400161743164	0.011280099868774414	0.9245889892578125	0.008268969535827637	0.0066554899215698245	0.949281982421875	-0.005574230194091797	-0.000367383003234863	0.9875570068359375	0.03701440048217773	0.03608219909667969	0.9447689819335937	0.021478700637817382	0.0341875	0.956	0.008098139762878417	0.03028580093383789	0.9691719970703125	-0.001902359962463379	0.01981730079650879	0.9950830078125	-0.025233499526977538	-0.005320310115814209	1.065550048828125
66	2.2	0.054495201110839844	-0.08841699981689453	0.9910490112304687	0.04350949859619141	-0.06762879943847656	1.0065700073242188	0.02218560028076172	-0.05741220092773437	1.0296800537109374	0.006325329780578613	-0.027658199310302733	1.0441500244140625	0.037876598358154295	-0.05604249954223633	0.91239697265625	0.024246200561523438	-0.055149700164794924	0.9310120239257812	0.011520099639892579	-0.0532328987121582	0.9522990112304688	-0.0015275599956512452	-0.045811100006103514	0.9894550170898437	0.03481800079345703	-0.02105590057373047	0.895916015625	0.020635299682617188	-0.02286389923095703	0.916510009765625	0.00458935022354126	-0.02410210037231445	0.94310498046875	-0.00884535026550293	-0.022572799682617186	0.983635009765625	0.03293389892578125	0.0147608003616333	0.903718994140625	0.02070750045776367	0.011176600456237792	0.9241069946289062	0.007435190200805664	0.006555449962615967	0.9488820190429688	-0.005982480049133301	-0.0004810470044612881	0.9871740112304688	0.03627830123901367	0.035922100067138675	0.9441380004882812	0.02092009925842285	0.034018798828125	0.9554530029296875	0.007479310035705566	0.030163400650024413	0.9686160278320313	-0.002317709922790527	0.019740299224853517	0.9946710205078125	-0.02543239974975586	-0.005293389797210693	1.0654200439453125
67	2.2333333333333334	0.05213040161132813	-0.08957340240478516	0.9899639892578125	0.04202320098876953	-0.06848719787597657	1.005530029296875	0.02106290054321289	-0.05762269973754883	1.0291300048828125	0.005828680038452149	-0.027728599548339845	1.04375	0.03661920166015625	-0.05620800018310547	0.9118729858398438	0.023126399993896485	-0.0553114013671875	0.9305499877929687	0.010540900230407714	-0.05340480041503906	0.951947998046875	-0.0023801898956298828	-0.045899898529052734	0.9893510131835938	0.033839099884033205	-0.021471200942993166	0.8954849853515625	0.019772100448608398	-0.023139200210571288	0.9162080078125	0.003908750057220459	-0.02420170021057129	0.9429849853515625	-0.009450969696044921	-0.022566200256347656	0.9834169921875	0.0326505012512207	0.014208700180053711	0.9033770141601563	0.02046080017089844	0.010756400108337403	0.9237839965820313	0.007071889877319336	0.006261229991912842	0.9486690063476563	-0.006638720035552979	-0.00047678199410438503	0.98697900390625	0.036051998138427736	0.03569329833984375	0.943614013671875	0.02044459915161133	0.03383459854125977	0.954947021484375	0.007050680160522461	0.030025699615478515	0.9682680053710937	-0.0027092299461364744	0.019671499252319338	0.9944190063476562	-0.025790599822998046	-0.005179590225219727	1.0651099853515624
68	2.2666666666666666	0.05072800064086914	-0.09001059722900391	0.9891589965820312	0.04099980163574219	-0.06885919952392579	1.00472998046875	0.020513099670410158	-0.057682201385498046	1.028510009765625	0.0053818697929382325	-0.027718299865722655	1.0433800048828126	0.036490699768066404	-0.05598939895629883	0.9116640014648437	0.022929100036621092	-0.05514530181884766	0.9303090209960938	0.010304499626159667	-0.053283100128173826	0.9516209716796875	-0.00263014006614685	-0.04599850082397461	0.9888330078125	0.03299380111694336	-0.02136870002746582	0.8949110107421875	0.019259199142456055	-0.023137500762939453	0.9158200073242188	0.003578949928283691	-0.024173599243164062	0.942780029296875	-0.009836609840393067	-0.022610599517822266	0.9830910034179687	0.03150629997253418	0.014634300231933593	0.902822021484375	0.01958340072631836	0.011018799781799317	0.923447998046875	0.006508649826049805	0.0064177498817443845	0.94835302734375	-0.007031579971313476	-0.000506871998310089	0.9866439819335937	0.035295600891113284	0.0359010009765625	0.943135009765625	0.019798099517822267	0.033996200561523436	0.9546380004882813	0.006571519851684571	0.03012649917602539	0.9679119873046875	-0.003547830104827881	0.019815500259399415	0.9940599975585938	-0.02603779983520508	-0.005159110069274902	1.0648399658203125
69	2.3	0.0505442008972168	-0.08973930358886718	0.98877001953125	0.04078200149536133	-0.06858270263671876	1.0044099731445313	0.020505599975585938	-0.05745909881591797	1.0281400146484374	0.00526885986328125	-0.027558799743652343	1.0430899658203125	0.03615140151977539	-0.05577159881591797	0.9113880004882813	0.02259869956970215	-0.055020599365234374	0.9300399780273437	0.009995969772338867	-0.05313050079345703	0.951385986328125	-0.002885190010070801	-0.0457135009765625	0.9888060302734375	0.03196730041503906	-0.021375600814819335	0.8942340087890625	0.018399599075317383	-0.023027000427246095	0.9153880004882813	0.003027220010757446	-0.024080699920654296	0.9425560302734375	-0.010124300003051758	-0.022511499404907227	0.9828679809570312	0.030457399368286134	0.014987700462341309	0.9022579956054687	0.018690900802612306	0.011270899772644043	0.9230889892578125	0.005853079795837403	0.006592629909515381	0.9480850219726562	-0.007424019813537598	-0.00034619200229644704	0.9864210205078126	0.03465039825439453	0.03616130065917969	0.9427999877929687	0.0193567008972168	0.03414680099487305	0.9544030151367188	0.006147550106048584	0.03026569938659668	0.9677260131835937	-0.003640700101852417	0.019843999862670898	0.9939879760742187	-0.026240299224853516	-0.005091859817504883	1.0646400146484376
70	2.3333333333333335	0.04946889877319336	-0.090247802734375	0.9885640258789062	0.04010060119628906	-0.06893160247802735	1.003989990234375	0.019978099822998047	-0.057592300415039065	1.0277900390625	0.004924129962921142	-0.027547000885009765	1.0429300537109376	0.035286598205566407	-0.05605979919433594	0.9110280151367187	0.021809799194335937	-0.05516669845581055	0.9297689819335937	0.009299269676208496	-0.053229801177978514	0.951198974609375	-0.0032693200111389162	-0.04575360107421875	0.9884879760742188	0.03152939987182617	-0.021460800170898436	0.8940059814453125	0.01802560043334961	-0.023143699645996094	0.9151339721679688	0.002608119964599609	-0.024143299102783202	0.94235302734375	-0.010555999755859375	-0.022513999938964843	0.9826829833984375	0.030781200408935547	0.014741900444030762	0.9022529907226563	0.018751399993896484	0.011143500328063966	0.9229559936523437	0.005723299980163574	0.006582019805908203	0.9478510131835938	-0.00777292013168335	-0.000299304008483886	0.9861500244140625	0.034701900482177736	0.03605170059204101	0.9427659912109375	0.019281999588012695	0.034137500762939456	0.9542379760742188	0.005999000072479248	0.03027389907836914	0.9676649780273437	-0.00400436019897461	0.019926599502563477	0.9936840209960938	-0.026451099395751954	-0.0050269198417663575	1.0644000244140626
71	2.3666666666666667	0.048358600616455076	-0.0906593017578125	0.9880399780273438	0.039138099670410154	-0.06916380310058594	1.0036300048828124	0.019247600555419922	-0.05768479919433594	1.0275899658203125	0.004442490100860595	-0.027602100372314455	1.0427099609375	0.03471400070190429	-0.056004600524902345	0.9107999877929688	0.021234600067138672	-0.05514360046386719	0.9295050048828125	0.008747679710388184	-0.05320759963989258	0.950989013671875	-0.003869839906692505	-0.04585739898681641	0.9882340087890625	0.031320199966430665	-0.021423599243164063	0.8938909912109375	0.017701299667358398	-0.02303849983215332	0.914969970703125	0.002236510038375854	-0.02406279945373535	0.9421129760742187	-0.010840399742126465	-0.022344200134277344	0.9824190063476562	0.030613000869750977	0.014544400215148925	0.9020750122070312	0.01856570053100586	0.011009699821472168	0.9227490234375	0.005361929893493652	0.006535459995269775	0.9476820068359375	-0.008085320472717285	-0.00022776800394058204	0.9859530029296875	0.03466630172729492	0.035945701599121097	0.9425999755859376	0.019269399642944336	0.03410010147094727	0.9540560302734375	0.0058648700714111325	0.03031949996948242	0.9674769897460938	-0.004400179862976074	0.01998979949951172	0.9933880004882812	-0.02672800064086914	-0.004932650089263916	1.06427001953125
72	2.4	0.04811199951171875	-0.09035030364990235	0.9876099853515625	0.03896390151977539	-0.06885910034179688	1.003280029296875	0.019138999938964844	-0.05745729827880859	1.027199951171875	0.004320260047912598	-0.027342899322509766	1.0424300537109374	0.03467919921875	-0.05550569915771485	0.9105969848632812	0.021161399841308593	-0.054731300354003906	0.9293150024414063	0.008643420219421386	-0.05293769836425781	0.9506959838867187	-0.004059060096740723	-0.04559830093383789	0.9879500122070313	0.030281000137329102	-0.021162099838256836	0.8932780151367188	0.01692009925842285	-0.022811500549316407	0.9144229736328126	0.00167519998550415	-0.023805999755859376	0.9417490234375	-0.011206500053405762	-0.02218079948425293	0.982197021484375	0.029481500625610352	0.014983200073242187	0.9015130004882812	0.01756319999694824	0.01136709976196289	0.92231201171875	0.0046465001106262204	0.0067747001647949215	0.9473590087890625	-0.00837147045135498	-0.000105408996343612	0.9858519897460938	0.03389120101928711	0.03640610122680664	0.9420369873046875	0.018284900665283203	0.03446030044555664	0.9536810302734375	0.005249859809875489	0.030595800399780274	0.967072998046875	-0.0046958599090576175	0.020135799407958985	0.9932080078125	-0.026926599502563476	-0.004732659816741943	1.0640799560546874
73	2.433333333333333	0.047723098754882814	-0.09058889770507812	0.987551025390625	0.038714599609375	-0.06899320220947265	1.0031599731445313	0.01886050033569336	-0.05748860168457031	1.027050048828125	0.003940829992294311	-0.02732320022583008	1.0422099609375	0.03462490081787109	-0.05551580047607422	0.9104110107421876	0.02106809997558594	-0.05468830108642578	0.9292150268554688	0.008442070007324219	-0.05288240051269531	0.9506090087890625	-0.00424779987335205	-0.04557509994506836	0.9879959716796874	0.030273500442504882	-0.021071300506591797	0.893031005859375	0.016960800170898436	-0.0227283992767334	0.9142780151367188	0.001706930041313171	-0.023780500411987305	0.9416110229492187	-0.011400400161743164	-0.02212700080871582	0.9820770263671875	0.02956399917602539	0.015172900199890137	0.9013829956054688	0.01769890022277832	0.011546299934387208	0.9222169799804687	0.004730430126190186	0.006909409999847412	0.9472509765625	-0.008481510162353515	1.8339300528168003e-05	0.98564697265625	0.03359749984741211	0.03662160110473633	0.94177001953125	0.018127599716186524	0.034627601623535155	0.953364013671875	0.005012060165405273	0.030710399627685545	0.9668820190429688	-0.004998439788818359	0.020320499420166015	0.9930380249023437	-0.02715049934387207	-0.004729619979858398	1.0640799560546874
